<svg xmlns="http://www.w3.org/2000/svg" viewBox="0 0 28 28" id="rolex">
  <path fill="#FF7C66" d="M5.252 13.492c.502 3.525.48 9.166 4.084 10.736s8.947 2.239 10.754-1.395c1.807-3.634 2.278-8.957 2.357-11.245s-2.915 8.246-2.907 2.898c.008-5.348-3.432 5.05-4.159-1.364s-3.248 6.876-4.473-.378-.716 6.81-3.27 2.378-2.623-3.299-2.386-1.63z"></path>
  <path d="M14.192 26c-.201 0-.401-.004-.6-.014-2.258-.102-4.882-.84-5.478-2.608l-4.32-12.592C2.8 10.755 2 9.952 2 8.97c0-1.002.832-1.818 1.855-1.818 1.022 0 1.854.815 1.854 1.818 0 .414-.14.805-.395 1.121l3.881 6.735-1.219-9.82c-.863-.192-1.467-.91-1.467-1.764 0-1.002.832-1.818 1.855-1.818 1.022 0 1.854.815 1.854 1.818 0 .533-.237 1.029-.64 1.369l2.81 9.305.98-10.447a1.791 1.791 0 0 1-1.111-1.651C12.258 2.815 13.09 2 14.113 2c1.021 0 1.854.815 1.854 1.817 0 .669-.378 1.271-.958 1.583l1.206 10.651 2.383-9.421a1.802 1.802 0 0 1-.817-1.498c0-1.002.832-1.817 1.854-1.817 1.023 0 1.855.815 1.855 1.817 0 .792-.531 1.483-1.271 1.727l-.732 9.746 3.281-6.847a1.799 1.799 0 0 1-.479-1.227c0-1.002.832-1.818 1.854-1.818 1.025 0 1.857.815 1.857 1.818 0 .93-.718 1.7-1.64 1.806l-3.907 13.025C19.636 25.225 16.821 26 14.192 26zM5.279 12.029l3.782 11.027c.354 1.048 2.192 1.823 4.576 1.931 2.845.124 5.318-.7 5.88-1.97l3.324-11.097-3.6 7.514a.501.501 0 0 1-.95-.254l.775-10.326-2.555 10.102a.505.505 0 0 1-.518.376.502.502 0 0 1-.464-.443l-1.32-11.67-1.063 11.333a.5.5 0 0 1-.976.098L9.215 8.864l1.279 10.292a.5.5 0 0 1-.93.311l-4.285-7.438zM3.855 8.152c-.471 0-.855.367-.855.818 0 .51.537.907 1.038.798a.504.504 0 0 1 .212.001.489.489 0 0 1 .138-.16.8.8 0 0 0 .322-.639c0-.451-.384-.818-.855-.818zm20.29-.439c-.471 0-.854.367-.854.818 0 .279.134.526.368.678a.52.52 0 0 1 .153.157.46.46 0 0 1 .238-.029c.57-.003.95-.356.95-.806 0-.451-.384-.818-.855-.818zM8.364 4.425c-.472 0-.855.367-.855.818s.384.818.855.818c.076 0 .154.017.228.047a.491.491 0 0 1 .174-.148.81.81 0 0 0 .453-.717c0-.451-.384-.818-.855-.818zm11.272-.11c-.471 0-.854.367-.854.817 0 .343.222.641.564.76a.51.51 0 0 1 .179.109.505.505 0 0 1 .185-.052c.438-.036.782-.394.782-.816-.001-.451-.385-.818-.856-.818zM14.113 3c-.472 0-.855.367-.855.818 0 .396.304.729.723.792.068.01.133.034.188.069a.482.482 0 0 1 .175-.084c.373-.097.624-.409.624-.777-.001-.451-.384-.818-.855-.818z"></path>
  <path d="M14.105 23.992c-2.04 0-4.105-.646-4.105-1.88 0-1.339 2.232-1.62 4.105-1.62 3.219 0 3.895.881 3.895 1.62 0 1.107-1.602 1.88-3.895 1.88zm0-2.5c-2.329 0-3.105.489-3.105.62 0 .226 1.067.88 3.105.88 1.873 0 2.895-.581 2.895-.88 0-.165-.686-.62-2.895-.62z"></path>
</svg>
